<?xml version="1.0" encoding="UTF-8" standalone="no"?>
<!-- Created with Inkscape (http://www.inkscape.org/) -->

<svg
   width="75.962997mm"
   height="23.312mm"
   viewBox="0 0 75.962997 23.312"
   version="1.1"
   id="svg1"
   xmlns="http://www.w3.org/2000/svg"
   xmlns:svg="http://www.w3.org/2000/svg">
  <defs
     id="defs1" />
  <g
     id="layer1">
    <path
       style="font-size:35.2777px;font-family:'Space Grotesk';-inkscape-font-specification:'Space Grotesk, @wght=700';font-variation-settings:'wght' 700;letter-spacing:-1.42081px;fill:#cc5500;stroke-width:1.16462;stroke-linejoin:round"
       d="m 63.48358,22.461366 c -1.451685,0 -2.752697,-0.246513 -3.903088,-0.739528 -1.150373,-0.520415 -2.06794,-1.259933 -2.752692,-2.218603 -0.657359,-0.98605 -0.986038,-2.177512 -0.986038,-3.574397 0,-1.396894 0.328679,-2.560956 0.986038,-3.492226 0.684752,-0.95866 1.616012,-1.670797 2.793769,-2.136422 1.20516,-0.4930148 2.574677,-0.7395373 4.108523,-0.7395373 H 69.31766 V 8.4102608 c 0,-0.9586399 -0.301293,-1.7392579 -0.90388,-2.3418441 C 67.811194,5.4384602 66.852554,5.123467 65.537831,5.123467 c -1.287343,0 -2.245983,0.3012831 -2.87596,0.9038693 -0.629976,0.5752059 -1.040811,1.3284136 -1.232553,2.2596832 L 56.663455,6.684703 c 0.32868,-1.0408207 0.849097,-1.9857904 1.561233,-2.8348692 0.739531,-0.876479 1.711886,-1.5749262 2.917047,-2.0953415 1.232553,-0.5477957 2.725309,-0.82170851 4.478267,-0.82170851 2.684227,0 4.806949,0.67105691 6.368195,2.01317071 1.561216,1.3421239 2.341844,3.2868139 2.341844,5.8340801 v 7.6007484 c 0,0.821688 0.560146,0.742868 1.150382,1.232553 1.761808,1.461615 -1.862099,4.164142 -1.862099,4.164142 -0.850399,0.217383 -1.794468,-0.137781 -2.451835,-0.630846 -0.657367,-0.493015 -0.98604,-1.150382 -0.98604,-1.97207 v -0.0412 h -0.780618 c -0.109542,0.328674 -0.356064,0.766928 -0.739528,1.314724 -0.383464,0.520405 -0.98605,0.98603 -1.807749,1.396884 -0.821688,0.410864 -1.94469,0.616287 -3.368974,0.616287 z m 0.903879,-4.190674 c 1.451665,0 2.629447,-0.397164 3.533306,-1.191462 0.93126,-0.821698 1.396895,-1.90361 1.396895,-3.245733 v -0.410845 h -5.217814 c -0.95865,0 -1.711868,0.205433 -2.259663,0.616267 -0.547806,0.410854 -0.821699,0.98604 -0.821699,1.725578 0,0.739537 0.287583,1.342113 0.862789,1.807748 0.575186,0.465615 1.410575,0.698447 2.506186,0.698447 z"
       id="path21-3" />
    <path
       style="font-size:35.2777px;font-family:'Space Grotesk';-inkscape-font-specification:'Space Grotesk, @wght=700';font-variation-settings:'wght' 700;letter-spacing:-1.42081px;fill:#cc5500;stroke-width:1.16462;stroke-linejoin:round"
       d="M 41.06246,21.88618 34.571015,1.5079897 h 5.50541 L 44.8012,18.106351 h 0.739534 L 50.265515,1.5079897 h 5.505404 L 49.279467,21.88618 Z"
       id="path20-5" />
    <path
       style="font-size:35.2777px;font-family:'Space Grotesk';-inkscape-font-specification:'Space Grotesk, @wght=700';font-variation-settings:'wght' 700;letter-spacing:-1.42081px;fill:#cc5500;stroke-width:1.16462;stroke-linejoin:round"
       d="M -2.586558e-7,21.88618 V 1.5079897 H 5.0945492 V 3.8087434 H 5.8340808 Q 6.2860155,2.5761907 7.3131431,2.0010048 8.3813541,1.4257989 9.7782465,1.4257989 H 12.24335 V 6.0273363 H 9.6960756 q -1.9720823,0 -3.2457194,1.068221 Q 5.1767181,8.1226778 5.1767181,10.30019 v 11.58599 z"
       id="text15-4-7-2" />
    <circle
       style="font-variation-settings:'wght' 700;fill:none;fill-opacity:1;stroke:#6a2c00;stroke-width:3.00003;stroke-linejoin:round;stroke-dasharray:none;stroke-opacity:1"
       id="path17-7-17-9"
       cx="24.02297"
       cy="11.656006"
       r="10.155985" />
    <path
       style="font-variation-settings:'wght' 700;fill:none;fill-opacity:1;stroke:#cc5500;stroke-width:3.22022;stroke-linecap:round;stroke-linejoin:round;stroke-dasharray:none;stroke-opacity:1"
       d="m 19.422263,13.513793 3.313454,2.449086 6.080189,-8.6137191"
       id="path18-4-1" />
  </g>
</svg>
